<svg xmlns="http://www.w3.org/2000/svg" viewBox="0 0 24 24" width="24" height="24">
  <path fill="white" d="M12 0C5.37 0 0 5.373 0 12c0 5.302 3.438 9.8 8.207 11.387c.6.113.793-.26.793-.577c0-.285-.01-1.04-.015-2.04c-3.338.725-4.042-1.612-4.042-1.612c-.546-1.387-1.333-1.755-1.333-1.755c-1.091-.745.083-.729.083-.729c1.205.085 1.839 1.238 1.839 1.238c1.07 1.834 2.807 1.304 3.492.997c.108-.776.418-1.304.762-1.604c-2.665-.304-5.467-1.333-5.467-5.931c0-1.31.468-2.38 1.236-3.22c-.124-.303-.536-1.523.118-3.176c0 0 1.008-.322 3.3 1.23a11.512 11.512 0 0 1 3.006-.404c1.02.005 2.045.137 3.006.404c2.291-1.553 3.296-1.23 3.296-1.23c.656 1.653.244 2.873.12 3.176c.77.84 1.236 1.91 1.236 3.22c0 4.61-2.807 5.625-5.478 5.921c.429.372.813 1.1.813 2.219c0 1.604-.015 2.897-.015 3.293c0 .32.192.696.801.577C20.565 21.795 24 17.298 24 12c0-6.627-5.373-12-12-12z"/>
</svg>

